<svg xmlns="http://www.w3.org/2000/svg" xmlns:xlink="http://www.w3.org/1999/xlink" preserveAspectRatio="xMidYMid" width="26" height="32" viewBox="0 0 26 32">
  <defs>
    <style>

      .cls-2 {
        fill: #98d361;
      }
    </style>
  </defs>
  <path d="M20.991,16.503 C20.952,12.568 24.178,10.680 24.323,10.587 C22.509,7.915 19.685,7.549 18.680,7.508 C16.276,7.262 13.990,8.932 12.771,8.932 C11.554,8.932 9.672,7.543 7.679,7.581 C5.060,7.619 2.644,9.114 1.295,11.476 C-1.426,16.230 0.599,23.274 3.251,27.130 C4.547,29.018 6.093,31.138 8.122,31.062 C10.076,30.984 10.815,29.790 13.178,29.790 C15.540,29.790 16.205,31.062 18.272,31.023 C20.375,30.984 21.707,29.099 22.995,27.206 C24.483,25.016 25.095,22.896 25.133,22.787 C25.085,22.766 21.031,21.202 20.991,16.503 ZM17.105,4.954 C18.182,3.639 18.909,1.814 18.711,-0.007 C17.160,0.056 15.278,1.033 14.166,2.346 C13.167,3.510 12.293,5.370 12.527,7.154 C14.259,7.290 16.027,6.267 17.105,4.954 Z" id="path-1" class="cls-2" fill-rule="evenodd"/>
</svg>
